1.9Hzhigh3min_grf.mot
version=1
nRows=12
nColumns 19
inDegrees=yes
endheader
time	1_ground_force_vx	1_ground_force_vy	1_ground_force_vz	1_ground_force_px	1_ground_force_py	1_ground_force_pz	1_ground_torque_x	1_ground_torque_y	1_ground_torque_z	2_ground_force_vx	2_ground_force_vy	2_ground_force_vz	2_ground_force_px	2_ground_force_py	2_ground_force_pz	2_ground_torque_x	2_ground_torque_y	2_ground_torque_z
            0.005000	           -0.824260	           -1.263199	            0.271773	           -0.197364	            0.006401	           -0.445198	           -0.688097	            0.704011	           -0.500366	           -0.699672	           -0.921271	           -0.566124	           -0.219572	            0.005653	           -0.687083	           -0.488820	            0.111602	            0.019463
            0.005500	           -0.869453	           -1.084122	            0.547795	           -0.197364	            0.006401	           -0.445198	           -0.643266	            0.989828	           -0.332030	           -0.743946	           -1.657364	           -0.756444	           -0.219572	            0.005653	           -0.687083	           -0.488924	            0.149143	            0.094998
            0.006000	           -0.593697	           -0.544648	            0.870423	           -0.197364	            0.006401	           -0.445198	           -0.544646	            0.518733	           -0.360182	            0.239881	           -1.653644	           -0.803791	           -0.219572	            0.005653	           -0.687083	           -0.432754	            0.187561	           -0.017992
            0.006500	           -0.319077	           -1.264674	            0.637368	           -0.197364	            0.006401	           -0.445198	           -0.515775	           -0.340215	           -0.483769	            1.362326	           -1.097474	           -0.708442	           -0.219572	            0.005653	           -0.687083	           -0.432455	            0.102554	           -0.037146
            0.007000	            0.231219	           -1.625296	            0.680313	           -0.197364	            0.006401	           -0.445198	           -0.479848	           -0.857504	           -0.481405	            2.347065	           -1.279911	           -0.193308	           -0.219572	            0.005653	           -0.687083	           -0.357365	            0.121596	            0.000590
            0.007500	            0.551044	           -0.722333	            0.316534	           -0.197364	            0.006401	           -0.445198	           -0.483427	           -0.617283	           -0.410320	            1.830531	           -0.914647	            0.136722	           -0.219572	            0.005653	           -0.687083	           -0.432413	            0.093034	           -0.018329
            0.008000	            0.459505	           -0.902813	            0.361845	           -0.197364	            0.006401	           -0.445198	           -0.504187	            0.140631	           -0.410922	            0.523407	           -2.208589	            0.179609	           -0.219572	            0.005653	           -0.687083	           -0.338460	            0.083988	           -0.037253
            0.008500	           -0.136873	           -2.343874	            0.082005	           -0.197364	            0.006401	           -0.445198	           -0.529255	            0.796624	           -0.433408	           -0.228912	           -1.474200	            0.041771	           -0.219572	            0.005653	           -0.687083	           -0.282184	            0.130715	            0.170244
            0.009000	           -0.732281	           -1.624106	            0.361711	           -0.197364	            0.006401	           -0.445198	           -0.541487	            0.907198	           -0.439542	           -0.700213	           -0.738126	           -0.283898	           -0.219572	            0.005653	           -0.687083	           -0.451106	            0.083043	            0.113597
            0.009500	           -0.822682	           -1.806552	            0.865581	           -0.197364	            0.006401	           -0.445198	           -0.506176	            0.268902	           -0.333481	           -0.745275	           -1.289067	           -0.755130	           -0.219572	            0.005653	           -0.687083	           -0.469602	            0.007219	            0.151035
            0.010000	           -0.823415	           -0.904240	            0.640166	           -0.197364	            0.006401	           -0.445198	           -0.534945	           -0.488104	           -0.562265	            0.239299	           -1.470165	           -0.615421	           -0.219572	            0.005653	           -0.687083	           -0.319420	            0.026936	            0.075638
            0.010500	           -0.181940	           -0.362926	            0.549180	           -0.197364	            0.006401	           -0.445198	           -0.474655	           -0.830290	           -0.423746	            1.221235	           -0.914837	           -0.426156	           -0.219572	            0.005653	           -0.687083	           -0.413379	            0.017682	           -0.075158
